# xmcd
#
# Track frame offsets:
#  150
#  40962
#  64606
#  84706
#  107788
#  120997
#  149214
#  157876
#  170043
#  174300
#  189019
#  201879
#  211641
#  217075
#  220177
#
# Disc length: 3067 seconds
#
# Revision: 0
# Processed by: cddbd v1.5.1PL2 Copyright (c) Steve Scherf et al.
# Submitted via: Collectorz.com_Music_Collector 6.10
#
DISCID=d80bf90f
DTITLE=Various Artist - Stormy Monday Sountrack
DYEAR=1900
DGENRE=
TTITLE0=Stormy Monday - B.B. King
TTITLE1=Kate and Brendan - Mike Figgis
TTITLE2=Weegee - Mike Figgis
TTITLE3=The Thrill Is Gone - B.B. King
TTITLE4=On The Quay - Mike Figgis
TTITLE5=Dawn and the Tyne - Mike Figgis
TTITLE6=The Road to Poland - Mike Figgis
TTITLE7=Finney Makes a Point - Mike Figgis
TTITLE8=Star Spangled Banner - Krakow Jazz Ensemble
TTITLE9=Carrie - Mike Figgis
TTITLE10=Just a Closer Walk With Thee - Mike Figgis
TTITLE11=Krakow Dawn - Krakow Jazz Ensemble
TTITLE12=(I Won't Forget You) - Stephanie de Sykes
TTITLE13=Train Across The River - Mike Figgis
TTITLE14=Muzac for Lover - Mike Figgis
EXTD=
EXTT0=
EXTT1=
EXTT2=
EXTT3=
EXTT4=
EXTT5=
EXTT6=
EXTT7=
EXTT8=
EXTT9=
EXTT10=
EXTT11=
EXTT12=
EXTT13=
EXTT14=
PLAYORDER=
